<svg xmlns="http://www.w3.org/2000/svg" viewBox="0 0 179.4 34.55"><defs><style>.cls-1{fill:#282828;}</style></defs><title>stores_black</title><g id="レイヤー_2" data-name="レイヤー 2"><g id="レイヤー_1-2" data-name="レイヤー 1"><g id="_グループ_" data-name="&lt;グループ&gt;"><polygon id="_パス_" data-name="&lt;パス&gt;" class="cls-1" points="54.15 10.31 54.15 14.26 60.56 14.26 60.56 34.24 64.52 34.24 64.52 14.26 70.93 14.26 70.93 10.31 54.15 10.31"/><path id="_複合パス_" data-name="&lt;複合パス&gt;" class="cls-1" d="M83.43,10c-6.25,0-8.58,7.51-8.58,12.24,0,4.95,2.29,12.31,8.58,12.31S92,27.19,92,22.24C92,17.51,89.68,10,83.43,10Zm0,4c4,0,4.32,6.47,4.32,8.46,0,1.37-.21,8.18-4.32,8.18s-4.32-6.26-4.32-8.18C79.12,19.87,79.54,14,83.43,14Z"/><path id="_パス_2" data-name="&lt;パス&gt;" class="cls-1" d="M49.3,27.48v-.06h0a6.91,6.91,0,0,0-.54-2.64c-1-2.26-3.45-3.4-5.41-4.32l-.72-.33c-1.72-.79-2.86-1.31-3.42-2.06a2.31,2.31,0,0,1-.46-1.55h0v0c0-2.09,1.74-2.53,3.19-2.53a3.19,3.19,0,0,1,2.34.85,2.16,2.16,0,0,1,.54,1.7l0,.4h4.29v-.81C49.07,12.44,45.41,10,42,10c-4.21,0-7.37,2.74-7.51,6.53a6.29,6.29,0,0,0,.7,3c1,1.83,2.79,2.7,4.68,3.5,2.16.9,4,1.68,4.8,3.11A2.71,2.71,0,0,1,45,27.52h0c0,.07,0,.15,0,.23,0,2.1-1.79,2.85-3.46,2.85a3.11,3.11,0,0,1-3.39-3.16v-.36H33.93v1.09c0,4,3.89,6.39,7.66,6.39s7.72-2.35,7.72-6.84C49.31,27.63,49.31,27.56,49.3,27.48Z"/><path id="_パス_3" data-name="&lt;パス&gt;" class="cls-1" d="M155.29,27.48v-.06h0a6.91,6.91,0,0,0-.54-2.64c-1-2.26-3.45-3.4-5.41-4.32l-.72-.33c-1.72-.79-2.86-1.31-3.42-2.06a2.31,2.31,0,0,1-.46-1.55h0v0c0-2.09,1.74-2.53,3.19-2.53a3.18,3.18,0,0,1,2.34.85,2.16,2.16,0,0,1,.54,1.7l0,.4h4.29v-.81c0-3.64-3.66-6.08-7.07-6.08-4.21,0-7.37,2.74-7.51,6.53a6.29,6.29,0,0,0,.7,3c1,1.83,2.79,2.7,4.68,3.5,2.16.9,4,1.68,4.8,3.11a2.71,2.71,0,0,1,.36,1.36h0c0,.07,0,.15,0,.23,0,2.1-1.79,2.85-3.46,2.85a3.11,3.11,0,0,1-3.39-3.16v-.36h-4.26v1.09c0,4,3.89,6.39,7.66,6.39s7.73-2.35,7.73-6.84C155.29,27.63,155.29,27.56,155.29,27.48Z"/><polygon id="_パス_4" data-name="&lt;パス&gt;" class="cls-1" points="123.45 30.28 123.45 23.74 132.48 23.74 132.48 19.78 123.45 19.78 123.45 14.26 133.81 14.26 133.81 10.31 119.49 10.31 119.49 34.24 134.22 34.24 134.22 30.28 123.45 30.28"/><path id="_複合パス_2" data-name="&lt;複合パス&gt;" class="cls-1" d="M108,23.79a6.25,6.25,0,0,0,4.41-6.34c0-4.41-3-7.14-7.86-7.14H97.7V34.24h4V24.63h2.22l5.3,9.61h4.9Zm-6.29-9.52h2.19c2.69,0,4.25.5,4.25,3.05s-1.1,3.36-4.21,3.36h-2.23Z"/><path id="_複合パス_3" data-name="&lt;複合パス&gt;" class="cls-1" d="M25,10.5,12.51,0,0,10.5V34.24H25ZM5.8,10.31l6.71-5.63,6.71,5.63Zm15.26,20H4v-16H21.06Z"/><g id="_グループ_2" data-name="&lt;グループ&gt;"><path id="_複合パス_4" data-name="&lt;複合パス&gt;" class="cls-1" d="M170.19,10a9.21,9.21,0,1,0,9.21,9.21A9.22,9.22,0,0,0,170.19,10Zm-1.25,11.68a2.48,2.48,0,0,1-5,0V20.56h1.87v1.05c0,.64.31.72.62.72s.6-.09.6-.72v-7h1.87Zm4.64-1.33h-1.51V24h-1.87V14.61h3.39a2.82,2.82,0,0,1,3.12,2.87A2.84,2.84,0,0,1,173.57,20.35Z"/><path id="_パス_5" data-name="&lt;パス&gt;" class="cls-1" d="M173.55,16.35h-1.49v2.26h1.49c.8,0,1.24-.4,1.24-1.13A1.08,1.08,0,0,0,173.55,16.35Z"/></g></g></g></g></svg>